<svg width="521" height="778" viewBox="0 0 521 778" fill="none" xmlns="http://www.w3.org/2000/svg">
<g clip-path="url(#clip0_45_206)">
<path d="M201.181 0V778" stroke="#E8E4F0" stroke-opacity="0.06" stroke-width="2" stroke-miterlimit="10"/>
<path d="M323.144 0V778" stroke="#E8E4F0" stroke-opacity="0.06" stroke-width="2" stroke-miterlimit="10"/>
<path d="M265.704 709.984C379.471 709.984 471.697 617.912 471.697 504.337C471.697 390.761 379.471 298.689 265.704 298.689C151.937 298.689 59.7107 390.761 59.7107 504.337C59.7107 617.912 151.937 709.984 265.704 709.984Z" stroke="#E8E4F0" stroke-opacity="0.06" stroke-width="2" stroke-miterlimit="10"/>
<path d="M265.704 479.31C379.471 479.31 471.697 387.238 471.697 273.663C471.697 160.087 379.471 68.0156 265.704 68.0156C151.937 68.0156 59.7107 160.087 59.7107 273.663C59.7107 387.238 151.937 479.31 265.704 479.31Z" stroke="#E8E4F0" stroke-opacity="0.06" stroke-width="2" stroke-miterlimit="10"/>
<path d="M502.138 214.076H0" stroke="#E8E4F0" stroke-opacity="0.06" stroke-width="2" stroke-miterlimit="10"/>
<path d="M521 577.111H18.8623" stroke="#E8E4F0" stroke-opacity="0.06" stroke-width="2" stroke-miterlimit="10"/>
</g>
<defs>
<clipPath id="clip0_45_206">
<rect width="521" height="778" fill="white"/>
</clipPath>
</defs>
</svg>
