<svg width="357" height="86" viewBox="0 0 357 86" fill="none" xmlns="http://www.w3.org/2000/svg">
<path d="M28.4988 1.27728C30.3593 1.87755 32.2515 2.75 34.1716 3.88903C34.8315 4.24882 35.4169 4.55082 35.9277 4.78944C36.4366 5.02992 36.8729 5.14923 37.2326 5.14923C37.7733 5.14923 38.1927 4.83418 38.4947 4.20408C38.7948 3.57398 39.0353 2.56917 39.2143 1.18593H41.2854C40.9834 5.20889 40.8362 12.0543 40.8362 21.7202H38.765C38.5245 18.4783 37.7882 15.3856 36.5597 12.4439C35.3293 9.50402 33.5881 7.11597 31.3362 5.28345C29.0842 3.4528 26.4575 2.53748 23.4562 2.53748C20.4548 2.53748 18.1264 3.36332 16.2957 5.01315C14.4632 6.66483 13.5479 8.90188 13.5479 11.7224C13.5479 13.8252 13.9972 15.6559 14.8995 17.2162C15.7999 18.7784 17.0601 20.2027 18.6819 21.4946C20.3038 22.7865 22.7944 24.5426 26.1574 26.7628L29.0395 28.7445C32.5814 31.0859 35.374 33.1272 37.4153 34.8684C39.4566 36.6114 41.1214 38.636 42.4133 40.9476C43.7033 43.2592 44.3502 45.9455 44.3502 49.0084C44.3502 52.8505 43.3584 56.0775 41.3786 58.6892C39.397 61.301 36.7088 63.2677 33.3178 64.5876C29.925 65.9074 26.1574 66.5692 22.0151 66.5692C18.6521 66.5692 15.8595 66.2672 13.6393 65.6688C11.4171 65.0686 9.37581 64.2595 7.51533 63.2379C6.19361 62.3971 5.17389 61.9758 4.45244 61.9758C3.91182 61.9758 3.49238 62.2909 3.19224 62.9229C2.89024 63.553 2.65162 64.5596 2.47266 65.9391H0.399658C0.640141 62.1567 0.75945 54.0511 0.75945 41.6224H2.83058C3.25003 48.3466 4.75072 53.7957 7.33451 57.9678C9.91457 62.1417 13.8779 64.2278 19.2225 64.2278C22.4644 64.2278 25.1358 63.3591 27.2386 61.616C29.3396 59.8749 30.391 57.3843 30.391 54.1406C30.391 50.8969 29.3098 47.8973 27.1492 45.4944C24.9885 43.0933 21.5659 40.392 16.8811 37.3888C13.2795 35.0474 10.3974 33.0061 8.23492 31.2649C6.0743 29.5237 4.30144 27.4675 2.92193 25.0962C1.54055 22.725 0.850796 19.979 0.850796 16.8564C0.850796 13.2529 1.76612 10.2068 3.59864 7.71438C5.42929 5.2238 7.87512 3.37824 10.938 2.17582C14.0009 0.975274 17.3621 0.375 21.0252 0.375C24.1459 0.375 26.6384 0.675137 28.5007 1.27541L28.4988 1.27728Z" fill="#F3B230" stroke="#091224" stroke-width="0.75" stroke-miterlimit="10"/>
<path d="M52.4111 18.7487H63.0389V20.5495H52.4111V56.9333C52.4111 58.7341 52.7261 60.0111 53.3562 60.7605C53.9863 61.5117 54.9911 61.8864 56.3725 61.8864C58.9544 61.8864 60.9957 60.0856 62.4964 56.4821L64.0269 57.293C61.7451 63.4766 57.6327 66.5693 51.6896 66.5693C47.7263 66.5693 44.7231 65.5477 42.6836 63.5064C41.4216 62.2462 40.5678 60.6691 40.1166 58.7788C39.6655 56.8885 39.4418 54.2917 39.4418 50.9883V20.5514H31.8768V18.7506H39.4418V6.86253C44.4248 6.86253 48.7479 5.90247 52.4111 3.98047V18.7506V18.7487Z" fill="#F3B230" stroke="#091224" stroke-width="0.75" stroke-miterlimit="10"/>
<path d="M156.16 14.2828V16.0837C154.899 16.4435 153.773 17.2097 152.782 18.3804C151.79 19.5511 150.845 21.3668 149.944 23.8294L133.823 69.1297C132.62 72.2522 131.302 74.383 129.859 75.5239C128.118 77.0246 125.506 77.7758 122.026 77.7758C119.506 77.7758 117.235 77.1607 115.225 75.9303C113.214 74.6999 112.209 72.914 112.209 70.5707C112.209 68.7084 112.869 67.2226 114.191 66.1115C115.511 65.0004 117.254 64.4449 119.414 64.4449C121.456 64.4449 123.09 64.9408 124.323 65.9307C125.553 66.9206 126.17 68.3169 126.17 70.1177C126.17 71.3779 125.777 72.5337 124.998 73.5851C124.218 74.6347 123.107 75.4307 121.668 75.9713C122.087 76.0291 122.779 76.0608 123.737 76.0608C127.46 76.0608 130.193 73.6895 131.934 68.9451L133.373 64.622L114.282 21.2121C113.322 19.1708 112.392 17.8211 111.489 17.1593C110.589 16.4994 109.659 16.1694 108.697 16.1694V14.2773C112.658 14.637 116.771 14.8179 121.036 14.8179C124.578 14.8179 128.75 14.6389 133.554 14.2773V16.1694C131.63 16.1694 130.206 16.3036 129.278 16.574C128.346 16.8443 127.881 17.5508 127.881 18.6898C127.881 19.3516 128.09 20.1924 128.512 21.2121L139.497 47.7789L145.713 30.4865C146.671 27.666 147.155 25.263 147.155 23.2814C147.155 18.8986 144.933 16.4975 140.489 16.0762V14.2754C143.311 14.4562 146.223 14.5457 149.225 14.5457C152.226 14.5457 154.54 14.4562 156.161 14.2754L156.16 14.2828Z" fill="#F3B230" stroke="#091224" stroke-width="0.75" stroke-miterlimit="10"/>
<path d="M221.101 7.18935C220.199 7.54914 219.584 8.24076 219.254 9.26049C218.924 10.2821 218.758 11.9319 218.758 14.2137V58.8838C218.758 61.1656 218.924 62.8173 219.254 63.837C219.584 64.8586 220.214 65.5483 221.146 65.9081C222.076 66.2679 223.532 66.5084 225.512 66.6277V68.4285C222.208 68.2477 217.496 68.1582 211.372 68.1582C204.948 68.1582 200.205 68.2477 197.142 68.4285V66.6277C199.303 66.5084 200.88 66.2679 201.87 65.9081C202.862 65.5483 203.537 64.8586 203.896 63.837C204.256 62.8173 204.435 61.1656 204.435 58.8838V11.7809L182.73 68.5199H181.289L156.976 10.5207V53.6603C156.976 57.2041 157.155 59.7991 157.515 61.4508C157.875 63.1025 158.656 64.303 159.858 65.0524C161.057 65.8037 163.011 66.3276 165.712 66.6277V68.4285C163.37 68.2477 160.129 68.1582 155.986 68.1582C152.683 68.1582 150.071 68.2477 148.149 68.4285V66.6277C150.131 66.3276 151.587 65.8168 152.517 65.0972C153.447 64.3776 154.077 63.2367 154.407 61.6745C154.737 60.1142 154.903 57.8026 154.903 54.7397V14.2137C154.903 11.9338 154.737 10.2821 154.407 9.26049C154.077 8.24076 153.447 7.54914 152.517 7.18935C151.587 6.82956 150.131 6.58908 148.149 6.46977V4.66895C150.071 4.84977 152.683 4.93925 155.986 4.93925C161.51 4.93925 166.252 4.84977 170.216 4.66895L188.409 48.53L204.979 4.94112H211.374C217.499 4.94112 222.212 4.85164 225.514 4.67081V6.47163C223.472 6.59281 222.002 6.83142 221.101 7.19122V7.18935Z" fill="#F3B230" stroke="#091224" stroke-width="0.75" stroke-miterlimit="10"/>
<path d="M290.112 24.9632C291.132 26.1041 291.852 27.575 292.273 29.3758C292.692 31.1766 292.903 33.6094 292.903 36.6705V60.8977C292.903 63.3603 293.339 65.0567 294.21 65.987C295.078 66.9191 296.566 67.3833 298.667 67.3833V69.2736C292.662 69.0349 288.701 68.9138 286.779 68.9138C284.978 68.9138 281.075 69.0349 275.072 69.2736V67.3833C276.873 67.3833 278.135 66.9191 278.854 65.987C279.574 65.0567 279.936 63.3603 279.936 60.8977V32.888C279.936 30.4272 279.529 28.5649 278.718 27.3047C277.909 26.0445 276.451 25.4125 274.352 25.4125C271.89 25.4125 269.787 26.4192 268.048 28.4307C266.304 30.444 265.436 32.9197 265.436 35.8614V60.8977C265.436 63.3603 265.796 65.0567 266.517 65.987C267.238 66.9191 268.499 67.3833 270.299 67.3833V69.2736C264.774 69.0349 261.053 68.9138 259.131 68.9138C257.33 68.9138 253.188 69.0349 246.704 69.2736V67.3833C248.865 67.3833 250.364 66.9191 251.208 65.987C252.049 65.0567 252.468 63.3603 252.468 60.8977V32.5282C252.468 29.7673 252.047 27.754 251.208 26.4938C250.366 25.2336 248.865 24.6035 246.704 24.6035V22.7113C248.624 22.8921 250.487 22.9816 252.288 22.9816C257.63 22.9816 262.013 22.5621 265.436 21.7195V29.8251C268.137 24.2418 273.06 21.4492 280.206 21.4492C284.769 21.4492 288.071 22.6199 290.114 24.9614L290.112 24.9632Z" fill="#F3B230" stroke="#091224" stroke-width="0.75" stroke-miterlimit="10"/>
<path d="M356.4 21.8688V23.6696C355.139 24.0294 354.013 24.7956 353.022 25.9663C352.03 27.137 351.085 28.9528 350.184 31.4154L334.065 76.7156C332.862 79.8381 331.542 81.9689 330.101 83.1098C328.36 84.6105 325.748 85.3618 322.266 85.3618C319.746 85.3618 317.477 84.7466 315.465 83.5162C313.452 82.2858 312.449 80.4999 312.449 78.1566C312.449 76.2943 313.109 74.8085 314.431 73.6974C315.751 72.5864 317.494 72.0308 319.654 72.0308C321.696 72.0308 323.332 72.5267 324.563 73.5166C325.793 74.5065 326.408 75.9028 326.408 77.7036C326.408 78.9638 326.017 80.1196 325.238 81.171C324.458 82.2206 323.347 83.0166 321.906 83.5572C322.326 83.615 323.017 83.6467 323.977 83.6467C327.7 83.6467 330.431 81.2754 332.172 76.531L333.613 72.2079L314.52 28.798C313.558 26.7567 312.63 25.407 311.728 24.7453C310.827 24.0853 309.899 23.7554 308.937 23.7554V21.8632C312.898 22.223 317.011 22.4038 321.274 22.4038C324.816 22.4038 328.988 22.2248 333.792 21.8632V23.7554C331.87 23.7554 330.444 23.8896 329.516 24.1599C328.584 24.4302 328.12 25.1367 328.12 26.2758C328.12 26.9376 328.328 27.7783 328.75 28.798L339.735 55.3648L345.951 38.0725C346.909 35.2519 347.392 32.849 347.392 30.8673C347.392 26.4846 345.17 24.0835 340.727 23.6622V21.8613C343.55 22.0422 346.46 22.1316 349.463 22.1316C352.466 22.1316 354.776 22.0422 356.398 21.8613L356.4 21.8688Z" fill="#F3B230" stroke="#091224" stroke-width="0.75" stroke-miterlimit="10"/>
<path d="M80.9278 18.2293C85.9686 20.5279 89.999 25.6637 93.0172 33.6369C96.0353 41.612 96.4081 48.1144 94.1394 53.144C91.8688 58.1774 87.5066 61.9132 81.0489 64.3553C74.6473 66.7769 68.9167 66.8608 63.8572 64.6014C58.7978 62.3439 54.7599 57.2266 51.7436 49.2534C48.7273 41.2802 48.3601 34.7573 50.6475 29.6867C52.933 24.6179 57.2785 20.8709 63.6801 18.4493C70.1377 16.0053 75.887 15.9344 80.9296 18.2293H80.9278ZM60.5371 27.582C60.4327 31.6348 61.7414 37.2535 64.4612 44.4419C67.1811 51.6303 69.9159 56.6934 72.6656 59.6333C75.4153 62.5732 77.9972 63.5873 80.4114 62.672C82.8815 61.738 84.1659 59.2772 84.2628 55.2916C84.3598 51.3078 83.0381 45.6928 80.2977 38.4485C77.5573 31.2042 74.8113 26.113 72.0616 23.1732C69.3119 20.2333 66.73 19.221 64.3158 20.1345C61.9017 21.048 60.6433 23.533 60.539 27.582H60.5371Z" fill="#F3B230" stroke="#091224" stroke-width="0.75" stroke-miterlimit="10"/>
<path d="M122.947 19.923C124.326 21.5449 125.018 23.4967 125.018 25.7785C125.018 28.0603 124.373 29.8164 123.081 31.2276C121.789 32.6388 120.095 33.3434 117.992 33.3434C115.889 33.3434 114.329 32.8177 113.128 31.7663C111.926 30.7168 111.327 29.3205 111.327 27.5793C111.327 24.6973 112.647 22.3558 115.291 20.555C115.05 20.4953 114.69 20.4655 114.209 20.4655C113.609 20.4655 113.128 20.5252 112.768 20.6463C110.487 21.0061 108.55 22.3875 106.96 24.7886C105.367 27.1897 104.573 29.6523 104.573 32.1727V56.0383C104.573 58.801 105.248 60.7212 106.6 61.8024C107.951 62.8837 110.097 63.4243 113.039 63.4243V65.3146C112.198 65.3146 111.508 65.2847 110.968 65.2251C104.844 65.0443 100.759 64.9548 98.7197 64.9548C97.0979 64.9548 93.4067 65.0443 87.6426 65.2251C87.1617 65.2866 86.5614 65.3146 85.8418 65.3146V63.4243C88.0024 63.4243 89.5031 62.9601 90.3457 62.028C91.1865 61.0977 91.6059 59.4013 91.6059 56.9387V28.5692C91.6059 25.8083 91.1846 23.795 90.3457 22.5348C89.505 21.2746 88.0043 20.6445 85.8418 20.6445V18.7523C87.7619 18.9331 89.6243 19.0226 91.4251 19.0226C96.7679 19.0226 101.153 18.6032 104.573 17.7605V26.1364C105.712 23.5564 107.366 21.4684 109.527 19.8764C111.687 18.2862 114.12 17.4902 116.821 17.4902C119.522 17.4902 121.564 18.3012 122.945 19.9212L122.947 19.923Z" fill="#F3B230" stroke="#091224" stroke-width="0.75" stroke-miterlimit="10"/>
<path d="M312.513 19.3445C314.548 19.4209 316.299 19.7379 317.762 20.2971C319.483 20.9272 320.916 21.8761 322.065 23.1438C323.211 24.4114 323.959 25.8991 324.306 27.6048C324.725 29.6647 324.421 31.4879 323.398 33.0744C322.374 34.6627 320.832 35.6656 318.773 36.0851C316.713 36.5045 314.947 36.2529 313.473 35.3263C311.998 34.4017 311.057 32.9383 310.648 30.938C310.289 29.1726 310.535 27.5302 311.39 26.0072C312.242 24.486 313.447 23.3227 314.999 22.5155C314.395 21.9656 313.571 21.5965 312.522 21.4119C311.472 21.2273 310.389 21.2479 309.273 21.4772C305.744 22.1967 303.384 24.6836 302.2 28.9377C301.012 33.1937 301.055 38.4396 302.325 44.6753C303.607 50.9708 305.647 55.2733 308.447 57.5831C311.245 59.8928 314.321 60.7056 317.676 60.0233C319.677 59.6169 321.584 58.6755 323.398 57.2028C325.213 55.7301 326.673 53.5023 327.78 50.5196L329.389 50.7433C328.99 54.8092 327.6 58.5059 325.215 61.8409C322.829 65.176 319.315 67.3161 314.668 68.2631C308.607 69.4972 303.259 68.5055 298.619 65.2823C293.979 62.0628 290.858 56.5093 289.253 48.6256C288.198 43.4487 288.241 38.8441 289.38 34.8137C290.519 30.7833 292.547 27.5041 295.464 24.98C298.38 22.4559 301.957 20.7632 306.193 19.9C308.368 19.4564 310.477 19.2737 312.514 19.3482L312.513 19.3445Z" fill="#F3B230" stroke="#091224" stroke-width="0.75" stroke-miterlimit="10"/>
<path d="M215.002 62.0152C213.497 59.7259 213.039 56.9874 213.62 53.7978C214.107 51.1394 215.203 49.0664 216.909 47.5788C218.614 46.0911 220.542 45.0546 222.695 44.4711C224.846 43.8895 227.555 43.3451 230.821 42.8437C234.274 42.3161 236.837 41.7326 238.511 41.0913C240.183 40.4519 241.166 39.3334 241.458 37.7395L242.722 30.8289C243.175 28.3476 242.954 26.31 242.057 24.7105C241.16 23.1129 239.499 22.0913 237.078 21.6476C234.242 21.1294 231.957 21.4426 230.221 22.5909C231.765 23.4839 232.889 24.6061 233.59 25.954C234.287 27.3037 234.492 28.7745 234.201 30.3684C233.834 32.3762 232.863 33.847 231.289 34.781C229.714 35.7131 227.952 36.002 226.004 35.6441C223.937 35.2657 222.46 34.3261 221.579 32.8198C220.693 31.3154 220.428 29.5892 220.786 27.6392C221.088 25.9857 221.744 24.6546 222.753 23.6498C223.762 22.6431 225.182 21.7912 227.02 21.0884C228.787 20.4359 230.887 20.0556 233.317 19.9512C235.748 19.845 238.351 20.0482 241.127 20.5552C244.02 21.0847 246.477 21.8397 248.494 22.8184C250.513 23.7971 252.099 25.1244 253.259 26.8022C254.32 28.3401 254.899 30.0944 254.996 32.0648C255.093 34.0372 254.845 36.6471 254.251 39.8945L249.844 63.9912C249.585 65.408 249.532 66.4371 249.691 67.0765C249.849 67.7159 250.312 68.1055 251.08 68.2453C251.967 68.4075 253.121 68.0999 254.545 67.3226L255.157 68.991C252.099 70.6893 248.651 71.1889 244.812 70.4861C241.563 69.8914 239.408 68.827 238.347 67.289C237.284 65.7529 236.925 63.8868 237.266 61.6889C233.439 65.9319 228.659 67.5314 222.932 66.4837C219.151 65.7921 216.51 64.3026 215.005 62.0133L215.002 62.0152ZM237.475 59.5339L240.797 41.3728C239.872 42.4261 238.129 43.4477 235.566 44.445C232.993 45.502 230.98 46.6597 229.529 47.918C228.077 49.1782 227.098 51.1972 226.591 53.973C226.148 56.3946 226.323 58.2737 227.117 59.6085C227.909 60.9432 229.132 61.7616 230.788 62.0655C233.09 62.4868 235.32 61.6442 237.475 59.5358V59.5339Z" fill="#F3B230" stroke="#091224" stroke-width="0.75" stroke-miterlimit="10"/>
</svg>
