<svg width="1627" height="389" viewBox="0 0 1627 389" fill="none" xmlns="http://www.w3.org/2000/svg">
<path d="M128.683 4.49423C137.177 7.23472 145.815 11.2178 154.582 16.4179C157.594 18.0605 160.267 19.4392 162.599 20.5286C164.922 21.6265 166.914 22.1712 168.556 22.1712C171.024 22.1712 172.939 20.7329 174.318 17.8562C175.688 14.9796 176.786 10.3922 177.603 4.0772H187.059C185.68 22.4435 185.008 53.6952 185.008 97.8238H175.552C174.454 83.0235 171.093 68.9041 165.484 55.474C159.867 42.0525 151.918 31.1501 141.637 22.784C131.356 14.4264 119.364 10.2475 105.661 10.2475C91.959 10.2475 81.329 14.0178 72.9714 21.5499C64.6052 29.0905 60.4264 39.3035 60.4264 52.1803C60.4264 61.7805 62.4775 70.1381 66.5968 77.2617C70.7075 84.3938 76.4608 90.896 83.8652 96.794C91.2696 102.692 102.64 110.709 117.994 120.846L131.151 129.893C147.322 140.582 160.071 149.901 169.39 157.851C178.71 165.808 186.31 175.051 192.208 185.604C198.097 196.158 201.051 208.422 201.051 222.405C201.051 239.946 196.523 254.678 187.484 266.602C178.437 278.525 166.165 287.504 150.684 293.53C135.194 299.556 117.994 302.577 99.0825 302.577C83.729 302.577 70.9798 301.198 60.8435 298.466C50.6986 295.726 41.3792 292.032 32.8854 287.368C26.8513 283.53 22.1959 281.606 18.9022 281.606C16.434 281.606 14.5191 283.045 13.1489 285.93C11.7701 288.806 10.6807 293.402 9.86368 299.7H0.399658C1.49755 282.432 2.04225 245.427 2.04225 188.685H11.4978C13.4127 219.384 20.2639 244.261 32.0599 263.308C43.8388 282.364 61.9328 291.887 86.3333 291.887C101.134 291.887 113.33 287.921 122.93 279.964C132.522 272.015 137.322 260.644 137.322 245.835C137.322 231.027 132.385 217.333 122.521 206.362C112.657 195.4 97.0314 183.068 75.6438 169.357C59.2009 158.668 46.0431 149.348 36.1706 141.399C26.3066 133.45 18.2128 124.063 11.9148 113.237C5.60828 102.411 2.45928 89.8747 2.45928 75.6191C2.45928 59.1677 6.63808 45.261 15.0042 33.8821C23.3618 22.5116 34.528 14.0859 48.5113 8.59645C62.4945 3.11548 77.8395 0.375 94.5633 0.375C108.81 0.375 120.189 1.74524 128.692 4.48572L128.683 4.49423Z" fill="#0C1320" stroke="#080E1C" stroke-width="0.75" stroke-miterlimit="10"/>
<path d="M240.146 83.7977H288.666V92.0191H240.146V258.125C240.146 266.346 241.585 272.176 244.461 275.597C247.338 279.027 251.925 280.738 258.232 280.738C270.019 280.738 279.339 272.516 286.19 256.065L293.177 259.767C282.76 287.998 263.985 302.117 236.853 302.117C218.759 302.117 205.048 297.453 195.737 288.134C189.975 282.38 186.077 275.18 184.017 266.55C181.958 257.92 180.937 246.065 180.937 230.984V92.0276H146.4V83.8062H180.937V29.5327C203.686 29.5327 223.423 25.1496 240.146 16.375V83.8062V83.7977Z" fill="#0C1320" stroke="#080E1C" stroke-width="0.75" stroke-miterlimit="10"/>
<path d="M711.504 63.8739V72.0953C705.75 73.7379 700.61 77.2359 696.082 82.5807C691.554 87.9254 687.239 96.215 683.129 107.458L609.527 314.271C604.038 328.526 598.021 338.254 591.433 343.463C583.484 350.314 571.56 353.744 555.671 353.744C544.164 353.744 533.798 350.935 524.623 345.318C515.44 339.701 510.853 331.547 510.853 320.849C510.853 312.347 513.866 305.564 519.9 300.492C525.925 295.419 533.883 292.883 543.747 292.883C553.066 292.883 560.53 295.147 566.156 299.666C571.773 304.185 574.59 310.56 574.59 318.781C574.59 324.535 572.794 329.811 569.237 334.611C565.679 339.403 560.607 343.037 554.037 345.505C555.952 345.769 559.109 345.914 563.484 345.914C580.48 345.914 592.957 335.088 600.906 313.428L607.476 293.691L520.317 95.5086C515.934 86.1892 511.687 80.0274 507.568 77.0061C503.457 73.9932 499.21 72.4868 494.818 72.4868V63.8484C512.904 65.4909 531.679 66.3165 551.151 66.3165C567.322 66.3165 586.369 65.4995 608.302 63.8484V72.4868C599.518 72.4868 593.016 73.0996 588.778 74.3337C584.522 75.5677 582.403 78.7933 582.403 83.9935C582.403 87.0148 583.356 90.8532 585.28 95.5086L635.434 216.796L663.809 137.85C668.184 124.973 670.396 114.003 670.396 104.956C670.396 84.9467 660.252 73.9847 639.962 72.0613V63.8398C652.847 64.6654 666.141 65.0739 679.843 65.0739C693.546 65.0739 704.108 64.6654 711.512 63.8398L711.504 63.8739Z" fill="#0C1320" stroke="#080E1C" stroke-width="0.75" stroke-miterlimit="10"/>
<path d="M1007.99 31.4959C1003.87 33.1385 1001.06 36.296 999.552 40.9514C998.045 45.6153 997.288 53.1474 997.288 63.5646V267.501C997.288 277.918 998.045 285.459 999.552 290.114C1001.06 294.778 1003.93 297.927 1008.19 299.569C1012.44 301.212 1019.08 302.31 1028.12 302.855V311.076C1013.04 310.251 991.526 309.842 963.568 309.842C934.24 309.842 912.588 310.251 898.605 311.076V302.855C908.469 302.31 915.669 301.212 920.188 299.569C924.716 297.927 927.797 294.778 929.439 290.114C931.082 285.459 931.899 277.918 931.899 267.501V52.458L832.808 311.493H826.229L715.231 46.7047V243.653C715.231 259.832 716.048 271.68 717.69 279.22C719.333 286.761 722.899 292.242 728.389 295.663C733.861 299.093 742.78 301.484 755.113 302.855V311.076C744.423 310.251 729.623 309.842 710.712 309.842C695.63 309.842 683.707 310.251 674.932 311.076V302.855C683.979 301.484 690.626 299.152 694.873 295.867C699.12 292.582 701.997 287.373 703.503 280.241C705.009 273.118 705.767 262.564 705.767 248.581V63.5646C705.767 53.1559 705.009 45.6153 703.503 40.9514C701.997 36.296 699.12 33.1385 694.873 31.4959C690.626 29.8533 683.979 28.7554 674.932 28.2107V19.9893C683.707 20.8148 695.63 21.2233 710.712 21.2233C735.929 21.2233 757.581 20.8148 775.675 19.9893L858.732 220.232L934.384 21.2318H963.576C991.543 21.2318 1013.06 20.8233 1028.13 19.9978V28.2192C1018.81 28.7724 1012.1 29.8618 1007.99 31.5044V31.4959Z" fill="#0C1320" stroke="#080E1C" stroke-width="0.75" stroke-miterlimit="10"/>
<path d="M1323.05 112.63C1327.7 117.838 1330.99 124.553 1332.91 132.775C1334.83 140.996 1335.79 152.103 1335.79 166.078V276.684C1335.79 287.927 1337.78 295.672 1341.75 299.919C1345.72 304.174 1352.51 306.293 1362.1 306.293V314.923C1334.69 313.834 1316.61 313.281 1307.83 313.281C1299.61 313.281 1281.79 313.834 1254.38 314.923V306.293C1262.6 306.293 1268.37 304.174 1271.65 299.919C1274.94 295.672 1276.59 287.927 1276.59 276.684V148.809C1276.59 137.575 1274.73 129.073 1271.03 123.319C1267.34 117.566 1260.68 114.681 1251.1 114.681C1239.85 114.681 1230.25 119.277 1222.31 128.46C1214.36 137.652 1210.39 148.954 1210.39 162.384V276.684C1210.39 287.927 1212.03 295.672 1215.33 299.919C1218.62 304.174 1224.37 306.293 1232.59 306.293V314.923C1207.37 313.834 1190.38 313.281 1181.61 313.281C1173.39 313.281 1154.47 313.834 1124.87 314.923V306.293C1134.74 306.293 1141.58 304.174 1145.44 299.919C1149.27 295.672 1151.19 287.927 1151.19 276.684V147.167C1151.19 134.562 1149.27 125.37 1145.44 119.617C1141.59 113.864 1134.74 110.987 1124.87 110.987V102.349C1133.64 103.174 1142.14 103.583 1150.36 103.583C1174.76 103.583 1194.76 101.668 1210.39 97.821V134.826C1222.72 109.336 1245.2 96.5869 1277.82 96.5869C1298.66 96.5869 1313.73 101.932 1323.06 112.621L1323.05 112.63Z" fill="#0C1320" stroke="#080E1C" stroke-width="0.75" stroke-miterlimit="10"/>
<path d="M1625.68 98.5047V106.726C1619.92 108.369 1614.78 111.867 1610.25 117.212C1605.73 122.556 1601.41 130.846 1597.3 142.089L1523.71 348.901C1518.22 363.157 1512.19 372.885 1505.61 378.093C1497.66 384.945 1485.74 388.375 1469.84 388.375C1458.34 388.375 1447.98 385.566 1438.8 379.949C1429.6 374.332 1425.02 366.178 1425.02 355.48C1425.02 346.978 1428.04 340.195 1434.07 335.122C1440.1 330.05 1448.06 327.514 1457.92 327.514C1467.24 327.514 1474.71 329.778 1480.33 334.297C1485.95 338.816 1488.75 345.191 1488.75 353.412C1488.75 359.165 1486.97 364.442 1483.41 369.242C1479.85 374.034 1474.78 377.668 1468.2 380.136C1470.12 380.4 1473.27 380.545 1477.66 380.545C1494.65 380.545 1507.12 369.719 1515.07 348.059L1521.65 328.322L1434.48 130.139C1430.09 120.82 1425.85 114.658 1421.73 111.637C1417.62 108.624 1413.38 107.118 1408.99 107.118V98.4792C1427.08 100.122 1445.85 100.947 1465.32 100.947C1481.49 100.947 1500.53 100.13 1522.47 98.4792V107.118C1513.69 107.118 1507.18 107.73 1502.94 108.965C1498.69 110.199 1496.57 113.424 1496.57 118.624C1496.57 121.646 1497.52 125.484 1499.44 130.139L1549.6 251.427L1577.97 172.481C1582.35 159.604 1584.55 148.633 1584.55 139.586C1584.55 119.578 1574.41 108.616 1554.13 106.692V98.4707C1567.01 99.2963 1580.3 99.7048 1594.01 99.7048C1607.72 99.7048 1618.26 99.2963 1625.67 98.4707L1625.68 98.5047Z" fill="#0C1320" stroke="#080E1C" stroke-width="0.75" stroke-miterlimit="10"/>
<path d="M368.391 81.9934C391.405 92.4873 409.805 115.935 423.584 152.335C437.363 188.745 439.065 218.43 428.708 241.392C418.341 264.372 398.426 281.427 368.945 292.577C339.718 303.632 313.556 304.015 290.458 293.7C267.36 283.393 248.925 260.031 235.155 223.63C221.384 187.23 219.708 157.45 230.15 134.301C240.585 111.16 260.423 94.0533 289.649 82.9977C319.131 71.84 345.378 71.5166 368.4 81.9934H368.391ZM275.3 124.692C274.824 143.195 280.798 168.846 293.215 201.664C305.633 234.482 318.118 257.597 330.671 271.019C343.225 284.44 355.012 289.07 366.034 284.891C377.311 280.627 383.175 269.393 383.617 251.197C384.06 233.009 378.026 207.375 365.515 174.302C353.004 141.229 340.467 117.986 327.914 104.564C315.361 91.1426 303.573 86.5212 292.552 90.6915C281.53 94.8618 275.785 106.207 275.309 124.692H275.3Z" fill="#0C1320" stroke="#080E1C" stroke-width="0.75" stroke-miterlimit="10"/>
<path d="M559.875 89.6164C566.173 97.0208 569.331 105.932 569.331 116.349C569.331 126.766 566.386 134.783 560.488 141.226C554.59 147.669 546.854 150.886 537.254 150.886C527.653 150.886 520.53 148.486 515.049 143.686C509.559 138.894 506.827 132.519 506.827 124.57C506.827 111.413 512.853 100.723 524.921 92.5015C523.824 92.2292 522.181 92.093 519.985 92.093C517.245 92.093 515.049 92.3654 513.406 92.9186C502.989 94.5612 494.146 100.868 486.887 111.83C479.618 122.792 475.993 134.034 475.993 145.541V254.496C475.993 267.109 479.074 275.876 485.244 280.812C491.414 285.748 501.21 288.216 514.64 288.216V296.846C510.802 296.846 507.653 296.71 505.185 296.438C477.227 295.612 458.58 295.204 449.269 295.204C441.864 295.204 425.013 295.612 398.698 296.438C396.502 296.718 393.761 296.846 390.476 296.846V288.216C400.34 288.216 407.191 286.097 411.038 281.842C414.877 277.595 416.792 269.85 416.792 258.607V129.09C416.792 116.485 414.868 107.293 411.038 101.54C407.2 95.7867 400.349 92.9101 390.476 92.9101V84.2716C399.242 85.0971 407.745 85.5056 415.966 85.5056C440.358 85.5056 460.375 83.5907 475.993 79.7438V117.983C481.193 106.204 488.742 96.6718 498.606 89.4036C508.47 82.1439 519.577 78.5098 531.909 78.5098C544.241 78.5098 553.56 82.212 559.867 89.6079L559.875 89.6164Z" fill="#0C1320" stroke="#080E1C" stroke-width="0.75" stroke-miterlimit="10"/>
<path d="M1425.31 86.9827C1434.61 87.3317 1442.6 88.7785 1449.28 91.3317C1457.14 94.2084 1463.68 98.5404 1468.92 104.328C1474.16 110.115 1477.57 116.907 1479.15 124.694C1481.07 134.099 1479.68 142.422 1475.01 149.665C1470.34 156.916 1463.3 161.495 1453.89 163.41C1444.49 165.325 1436.43 164.176 1429.7 159.946C1422.97 155.725 1418.67 149.044 1416.8 139.911C1415.16 131.852 1416.28 124.354 1420.19 117.4C1424.08 110.456 1429.58 105.145 1436.67 101.46C1433.91 98.9489 1430.15 97.2638 1425.36 96.4212C1420.57 95.5786 1415.62 95.6723 1410.52 96.7191C1394.41 100.004 1383.64 111.358 1378.23 130.779C1372.81 150.21 1373.01 174.159 1378.8 202.628C1384.66 231.369 1393.97 251.012 1406.75 261.557C1419.53 272.101 1433.57 275.812 1448.89 272.697C1458.02 270.842 1466.73 266.544 1475.01 259.82C1483.3 253.097 1489.96 242.926 1495.02 229.309L1502.36 230.33C1500.54 248.892 1494.19 265.769 1483.31 280.995C1472.41 296.221 1456.37 305.991 1435.15 310.315C1407.48 315.949 1383.07 311.421 1361.88 296.706C1340.7 282.008 1326.45 256.654 1319.12 220.662C1314.31 197.028 1314.5 176.006 1319.7 157.605C1324.9 139.205 1334.16 124.235 1347.48 112.711C1360.79 101.187 1377.13 93.4594 1396.46 89.5189C1406.39 87.4934 1416.02 86.6593 1425.32 86.9997L1425.31 86.9827Z" fill="#0C1320" stroke="#080E1C" stroke-width="0.75" stroke-miterlimit="10"/>
<path d="M980.139 281.799C973.271 271.348 971.178 258.845 973.833 244.283C976.054 232.147 981.059 222.683 988.846 215.891C996.633 209.099 1005.43 204.367 1015.26 201.704C1025.09 199.048 1037.45 196.563 1052.36 194.274C1068.12 191.865 1079.83 189.201 1087.47 186.273C1095.1 183.354 1099.59 178.248 1100.92 170.971L1106.7 139.421C1108.76 128.094 1107.75 118.791 1103.66 111.489C1099.56 104.195 1091.98 99.5312 1080.92 97.5056C1067.98 95.1396 1057.55 96.5695 1049.62 101.812C1056.67 105.889 1061.8 111.012 1065 117.166C1068.18 123.327 1069.12 130.042 1067.79 137.319C1066.12 146.485 1061.68 153.2 1054.5 157.464C1047.31 161.72 1039.26 163.039 1030.37 161.405C1020.93 159.677 1014.19 155.388 1010.17 148.511C1006.12 141.643 1004.91 133.762 1006.55 124.859C1007.93 117.31 1010.92 111.234 1015.53 106.646C1020.13 102.05 1026.62 98.161 1035.01 94.9524C1043.08 91.9736 1052.66 90.2374 1063.76 89.7608C1074.86 89.2757 1086.74 90.2034 1099.41 92.5183C1112.62 94.9354 1123.84 98.3823 1133.04 102.85C1142.26 107.319 1149.5 113.378 1154.8 121.038C1159.64 128.059 1162.29 136.068 1162.73 145.064C1163.17 154.069 1162.04 165.984 1159.33 180.809L1139.21 290.82C1138.02 297.288 1137.79 301.986 1138.51 304.906C1139.23 307.825 1141.34 309.604 1144.85 310.242C1148.9 310.982 1154.17 309.578 1160.67 306.029L1163.46 313.646C1149.5 321.4 1133.76 323.68 1116.24 320.472C1101.4 317.757 1091.56 312.897 1086.72 305.876C1081.87 298.863 1080.23 290.344 1081.78 280.309C1064.31 299.68 1042.49 306.982 1016.34 302.199C999.084 299.042 987.025 292.242 980.156 281.79L980.139 281.799ZM1082.74 270.471L1097.9 187.559C1093.68 192.367 1085.72 197.031 1074.02 201.584C1062.28 206.41 1053.09 211.695 1046.46 217.44C1039.83 223.193 1035.37 232.411 1033.05 245.083C1031.03 256.139 1031.83 264.718 1035.45 270.811C1039.07 276.905 1044.65 280.641 1052.21 282.029C1062.72 283.952 1072.9 280.105 1082.74 270.479V270.471Z" fill="#0C1320" stroke="#080E1C" stroke-width="0.75" stroke-miterlimit="10"/>
</svg>
